# xmcd CD database file generated by Grip 2.5
# 
# Track frame offsets:
#       150
#       8922
#       22255
#       39837
#       59077
#       76612
#       93340
#       110075
#       118080
#       132145
#       144742
#       158005
#       170080
#       182472
#       199400
# 
# Disc length: 2814 seconds
# 
# Revision: 3
# Processed by: cddbd v1.4b41PL1 Copyright (c) Steve Scherf et al.
# Submitted via: Grip 2.5
# 
DISCID=cc0afc0f
DTITLE=Yoshio Owa - NieA's Loco
DYEAR=1900
DGENRE=
TTITLE0=Ukulele blues
TTITLE1=Paradise Branch
TTITLE2=Olomana Blues
TTITLE3=Come stay with me
TTITLE4=Mana
TTITLE5=Comfortable feelin'
TTITLE6=Like a hula blues
TTITLE7=Lag Rag
TTITLE8=As is
TTITLE9=Papa Street
TTITLE10=Molokai shores
TTITLE11=Love never change
TTITLE12=Puo Eno Hana
TTITLE13=Nia
TTITLE14=Holo holo
EXTD=
EXTT0=
EXTT1=
EXTT2=
EXTT3=
EXTT4=
EXTT5=
EXTT6=
EXTT7=
EXTT8=
EXTT9=
EXTT10=
EXTT11=
EXTT12=
EXTT13=
EXTT14=
PLAYORDER=
